HIERARCHY
ROOT Hips
{
	OFFSET -3.958830 18.904000 13.208200
	CHANNELS 6 Xposition Yposition Zposition Zrotation Yrotation Xrotation 
	JOINT LHipJoint
	{
		OFFSET 0.000000 0.000000 0.000000
		CHANNELS 3 Zrotation Yrotation Xrotation
		JOINT LeftUpLeg
		{
			OFFSET 1.800000 -1.400000 0.085000
			CHANNELS 3 Zrotation Yrotation Xrotation
			JOINT LeftLeg
			{
				OFFSET 2.215000 -6.000000 0.000000
				CHANNELS 3 Zrotation Yrotation Xrotation
				JOINT LeftFoot
				{
					OFFSET 2.500000 -6.900000 0.000000
					CHANNELS 3 Zrotation Yrotation Xrotation
					JOINT LeftToeBase
					{
						OFFSET 0.200000 -0.500000 1.950000
						CHANNELS 3 Zrotation Yrotation Xrotation
						End Site
						{
							OFFSET 0.000000 0.000000 0.000000
						}
					}
				}
			}
		}
	}
	JOINT RHipJoint
	{
		OFFSET 0.000000 0.000000 0.000000
		CHANNELS 3 Zrotation Yrotation Xrotation
		JOINT RightUpLeg
		{
			OFFSET -1.800000 -1.400000 0.085000
			CHANNELS 3 Zrotation Yrotation Xrotation
			JOINT RightLeg
			{
				OFFSET -2.215000 -6.000000 0.000000
				CHANNELS 3 Zrotation Yrotation Xrotation
				JOINT RightFoot
				{
					OFFSET -2.500000 -6.900000 0.000000
					CHANNELS 3 Zrotation Yrotation Xrotation
					JOINT RightToeBase
					{
						OFFSET -0.200000 -0.500000 1.950000
						CHANNELS 3 Zrotation Yrotation Xrotation
						End Site
						{
							OFFSET 0.000000 0.000000 0.000000
						}
					}
				}
			}
		}
	}
	JOINT LowerBack
	{
		OFFSET 0.000000 0.000000 0.000000
		CHANNELS 3 Zrotation Yrotation Xrotation
		JOINT Spine
		{
			OFFSET -0.087000 1.940000 -0.288900
			CHANNELS 3 Zrotation Yrotation Xrotation
			JOINT Spine1
			{
				OFFSET 0.000000 1.950000 0.060000
				CHANNELS 3 Zrotation Yrotation Xrotation
				JOINT Neck
				{
					OFFSET 0.000000 0.000000 0.000000
					CHANNELS 3 Zrotation Yrotation Xrotation
					JOINT Neck1
					{
						OFFSET 0.000000 1.600000 0.340000
						CHANNELS 3 Zrotation Yrotation Xrotation
						JOINT Head
						{
							OFFSET 0.000000 1.667000 -0.240000
							CHANNELS 3 Zrotation Yrotation Xrotation
							End Site
							{
								OFFSET 0.000000 0.000000 0.000000
							}
						}
					}
				}
				JOINT LeftShoulder
				{
					OFFSET 0.000000 0.000000 0.000000
					CHANNELS 3 Zrotation Yrotation Xrotation
					JOINT LeftArm
					{
						OFFSET 2.700000 1.550000 -0.730000
						CHANNELS 3 Zrotation Yrotation Xrotation
						JOINT LeftForeArm
						{
							OFFSET 5.450000 0.000000 0.000000
							CHANNELS 3 Zrotation Yrotation Xrotation
							JOINT LeftHand
							{
								OFFSET 3.450000 0.000000 0.000000
								CHANNELS 3 Zrotation Yrotation Xrotation
								JOINT LeftHandIndex1
								{
									OFFSET 0.750000 0.000000 0.000000
									CHANNELS 3 Zrotation Yrotation Xrotation
									End Site
									{
										OFFSET 0.000000 0.000000 0.000000
									}
								}
							}
						}
					}
				}
				JOINT RightShoulder
				{
					OFFSET 0.000000 0.000000 0.000000
					CHANNELS 3 Zrotation Yrotation Xrotation
					JOINT RightArm
					{
						OFFSET -2.700000 1.550000 -0.730000
						CHANNELS 3 Zrotation Yrotation Xrotation
						JOINT RightForeArm
						{
							OFFSET -5.450000 0.000000 0.000000
							CHANNELS 3 Zrotation Yrotation Xrotation
							JOINT RightHand
							{
								OFFSET -3.450000 0.000000 0.000000
								CHANNELS 3 Zrotation Yrotation Xrotation
								JOINT RightHandIndex1
								{
									OFFSET -0.750000 0.000000 0.000000
									CHANNELS 3 Zrotation Yrotation Xrotation
									End Site
									{
										OFFSET 0.000000 0.000000 0.000000
									}
								}
							}
						}
					}
				}
			}
		}
	}
}
MOTION
Frames: 9
Frame Time: 0.016667
13.458400 17.533560 -18.220000 18.343975 -53.675647 -18.725437 -16.408564 7.847702 9.345329 43.492707 16.731173 -54.783491 -40.359858 14.233349 8.069085 0.638537 11.186283 0.553652 0.701860 0.785570 0.480840 18.342197 -8.107667 0.628824 -10.954164 0.384273 4.789563 2.377211 -4.604097 9.061944 -0.631415 -4.549813 2.711634 0.630590 0.228070 0.236390 -2.427323 -1.068579 -9.725507 -7.903666 11.626506 9.081745 -4.798316 14.704127 13.727583 -1.034657 -10.596429 -14.671491 -19.718635 11.623249 21.919906 -4.980190 7.629650 -17.348080 -9.590926 -26.239526 3.412995 -16.765436 -25.433748 -7.917787 52.574153 -21.521880 -15.058325 -3.948444 2.981202 0.202430 0.199930 0.136490 0.240360 12.887365 39.200237 10.623537 13.223243 28.466555 -9.721293 -44.551255 27.302707 -14.288932 2.082460 -1.756768 -0.096150 0.393720 -0.160760 -0.042040 
13.446860 17.485550 -18.221660 18.874980 -53.964776 -17.778249 -16.429539 7.856345 9.253359 41.365990 14.972321 -53.392461 -29.484760 6.869052 -5.150140 0.359647 9.450467 1.101124 0.753470 0.861250 0.504230 18.316055 -8.119986 0.539270 -10.690745 0.589785 3.272938 2.114556 -4.430960 9.863443 -0.588658 -4.433066 2.738916 0.678370 0.218900 0.247430 -2.381196 -1.216937 -9.534252 -9.248659 12.112980 6.819178 -4.547419 14.922619 13.859340 -0.790919 -10.254783 -14.180736 -18.748623 11.024905 21.083515 -5.055300 7.125790 -17.290290 -9.087350 -25.108584 3.186374 -21.404291 -27.344186 -7.024933 54.696319 -20.575046 -15.742431 -3.932594 3.040340 0.159460 0.211170 0.142630 0.265330 11.800772 37.921613 10.536341 16.790969 28.896040 -9.151856 -46.665024 28.101421 -15.701626 2.029151 -1.816024 -0.067360 0.377460 -0.202980 -0.023190 
13.420970 17.445050 -18.226580 19.491544 -54.329101 -18.963266 -16.210010 8.834471 8.161705 33.511584 11.460637 -57.645764 -15.241648 7.425155 -1.157360 -0.161046 7.718973 1.623426 0.771380 0.858720 0.556860 18.274382 -8.722193 0.796850 -10.471244 0.510846 3.084864 1.662339 -4.547428 11.717748 -0.591727 -4.479559 2.704375 0.702990 0.210700 0.236940 -2.447682 -1.420323 -9.106388 -10.197639 12.517305 7.172234 -3.553761 15.412207 14.290430 -1.267017 -10.534462 -14.375854 -18.904344 10.486909 20.362107 -5.656490 6.556440 -18.801880 -10.409992 -25.800984 2.889251 -20.880226 -27.410638 -6.932483 51.612392 -18.199227 -13.877546 -3.966480 2.997221 0.207310 0.201920 0.151560 0.243190 14.295510 38.778679 11.234060 16.161682 28.704292 -9.866445 -44.665007 26.778412 -14.625190 2.051185 -1.793743 -0.106160 0.423220 -0.192390 -0.057360 
13.432830 17.381510 -18.246210 19.116878 -54.116868 -19.066122 -16.145726 9.109851 8.063844 32.382538 11.026546 -57.995065 -14.198170 7.757133 0.484148 -0.070770 7.458868 1.708529 0.715320 0.803050 0.490150 18.269742 -8.873122 0.852913 -9.750149 0.368262 2.915609 1.688255 -4.711691 13.746203 -0.590368 -4.462138 2.737693 0.602470 0.160700 0.216670 -2.373739 -1.591235 -9.203868 -10.719958 12.209846 9.135308 -3.421583 15.049977 14.056458 -1.028245 -11.166782 -16.293009 -20.913639 11.821485 21.283570 -4.723750 7.558870 -18.257490 -11.244201 -26.801446 3.831796 -20.175499 -23.886828 -8.309276 50.298639 -18.101869 -13.180907 -3.885960 3.084242 0.216140 0.132320 0.175880 0.251170 15.442209 40.098752 12.875774 16.702881 27.717299 -11.240165 -44.120777 26.483491 -14.368418 2.167686 -1.809642 -0.060300 0.350720 -0.209860 -0.027140 
13.435590 17.270330 -18.244280 18.003219 -52.781478 -18.418465 -16.046435 9.593552 7.638052 28.347134 8.982341 -60.780973 -9.919865 8.011811 4.243760 -0.294288 6.709434 1.974593 0.719740 0.788680 0.487240 18.240439 -9.130454 1.005160 -9.388062 0.296669 2.959191 2.491157 -5.101340 15.744632 -0.609013 -4.543932 2.726380 0.621790 0.166110 0.133590 -2.445727 -1.777498 -9.051309 -11.099672 11.762722 10.314313 -2.755890 14.520894 14.700794 -1.360812 -11.404917 -17.300770 -21.313888 11.694347 20.885732 -2.482330 6.551040 -20.153570 -9.534673 -26.915902 4.518920 -22.253225 -22.062328 -8.431601 49.148916 -16.558310 -12.478603 -3.816212 3.031672 0.317590 0.068270 0.174590 0.261000 14.842954 40.243799 13.632902 17.697105 27.130013 -11.473658 -41.397048 24.794598 -12.992127 2.160335 -1.762642 -0.145170 0.450180 -0.205760 -0.049680 
13.426960 17.161920 -18.207080 18.091052 -54.160168 -18.575116 -15.940218 10.087351 7.054003 23.538081 7.244816 -62.831771 -2.498244 7.861334 7.693956 -0.379352 5.867288 2.273836 0.655950 0.723070 0.461520 18.220065 -9.466704 1.108946 -9.872930 0.673968 2.426189 2.920870 -5.465887 17.867595 -0.573777 -4.768570 2.629452 0.582170 0.216310 0.206680 -2.558781 -1.723468 -8.756664 -10.081270 11.938587 9.600529 -3.234098 14.993208 15.377186 -1.263648 -11.259436 -17.419306 -20.934718 12.180903 20.490699 -4.936370 7.825910 -17.184630 -10.057947 -26.458139 4.712991 -23.033603 -21.273105 -7.560181 46.295347 -13.090073 -10.325026 -3.979741 3.117632 0.214720 0.171340 0.128310 0.231590 15.160288 39.553263 13.962815 20.184132 26.763979 -10.899704 -38.964848 25.762841 -12.662975 2.110161 -1.818306 -0.111930 0.379200 -0.164680 -0.041540 
13.426010 17.044420 -18.195730 16.148568 -54.576352 -18.685379 -15.823034 10.481529 6.708868 15.921161 3.949689 -68.625138 8.121765 7.104665 14.281476 -0.402959 4.984156 2.556351 0.726110 0.807330 0.521350 18.205755 -9.788326 1.327956 -9.310281 0.440133 3.811681 3.102655 -5.889702 19.680379 -0.697924 -4.984767 2.545378 0.579650 0.101270 0.224260 -2.732737 -1.563505 -8.723707 -8.541454 11.439590 12.816410 -3.892269 14.792675 14.787502 -0.810038 -11.515744 -17.930986 -21.565751 12.481386 20.983792 -5.661040 8.365430 -19.854550 -12.876892 -26.907337 4.605643 -20.177937 -19.539551 -7.676586 42.725868 -11.762113 -8.634286 -3.916848 3.135041 0.268870 0.088550 0.229230 0.239960 17.159626 40.048777 14.352504 18.727480 26.880799 -10.902982 -34.625408 24.914190 -10.806866 2.156644 -1.784161 -0.045000 0.329840 -0.223960 -0.043890 
13.413660 16.895180 -18.161470 14.890974 -55.587336 -17.904389 -15.757165 10.779690 6.457241 11.573611 1.610513 -69.107272 14.368744 5.881095 15.140865 -0.552476 4.600366 2.748722 0.712310 0.772840 0.510050 18.192341 -9.972562 1.392616 -9.128685 0.687212 3.345875 3.506359 -6.260192 22.457413 -0.707792 -5.113477 2.530502 0.622250 0.177090 0.111260 -2.788071 -1.597823 -8.612717 -7.357652 11.555474 12.916899 -3.339927 15.140371 15.384476 -1.334654 -11.652448 -18.312267 -21.957130 12.056805 21.073562 -2.177060 6.732080 -21.564440 -12.269838 -27.496799 4.085535 -24.045017 -22.786474 -6.589175 43.346509 -4.918847 -7.017193 -3.947868 3.012985 0.373720 0.052570 0.193640 0.246920 17.739637 40.115506 15.258173 20.263662 26.733464 -10.389910 -33.283936 21.679297 -9.583499 2.142946 -1.684103 -0.184850 0.523790 -0.183740 -0.068220 
13.424780 16.754670 -18.124080 13.566007 -54.857815 -16.300504 -15.727654 10.703138 6.520565 9.156654 -0.818408 -69.038034 10.962585 5.201295 9.318361 -0.624072 3.630369 3.113981 0.723990 0.805550 0.509390 18.187460 -10.051784 1.411802 -9.349865 1.329343 1.893832 5.010915 -7.005642 25.367750 -0.739860 -5.359894 2.432226 0.621940 0.157980 0.115030 -2.988098 -1.413378 -8.538092 -6.273269 10.766882 13.459392 -4.230119 14.309801 13.938469 -1.144884 -11.789009 -17.222612 -22.308089 12.860442 20.511794 -2.410500 7.235410 -21.848570 -14.272418 -25.399499 4.561262 -26.257215 -19.464376 -6.826273 41.458656 -15.945852 -9.882669 -3.783529 2.923960 0.358450 0.039440 0.215150 0.257280 18.877014 38.215383 13.975846 22.944560 26.629430 -8.186562 -29.348709 20.574977 -8.121865 2.159780 -1.638968 -0.155220 0.506830 -0.204550 -0.050950 
